<mxfile host="app.diagrams.net" modified="2024-07-18T14:31:59.862Z" agent="Mozilla/5.0 (Windows NT 10.0; Win64; x64) AppleWebKit/537.36 (KHTML, like Gecko) Chrome/126.0.0.0 Safari/537.36 Edg/126.0.0.0" etag="NylWBPXJiwciMh7nXOxb" version="24.6.4" type="github">
  <diagram name="第 1 页" id="ilSwykqsadgWNNI03-N_">
    <mxGraphModel dx="923" dy="517" grid="1" gridSize="10" guides="1" tooltips="1" connect="1" arrows="1" fold="1" page="1" pageScale="1" pageWidth="827" pageHeight="1169" math="0" shadow="0">
      <root>
        <mxCell id="0" />
        <mxCell id="1" parent="0" />
        <mxCell id="50opZlvA_jptatyNIHWN-82" value="&lt;div&gt;&lt;br&gt;&lt;/div&gt;&lt;div&gt;&lt;br&gt;&lt;/div&gt;&lt;div&gt;&lt;br&gt;&lt;/div&gt;&lt;div&gt;&lt;br&gt;&lt;/div&gt;&lt;div&gt;&lt;br&gt;&lt;/div&gt;&lt;div&gt;&lt;br&gt;&lt;/div&gt;&lt;div&gt;&lt;br&gt;&lt;/div&gt;Backbone" style="rounded=1;whiteSpace=wrap;html=1;arcSize=8;fillColor=#dae8fc;strokeColor=#73aaf7;" parent="1" vertex="1">
          <mxGeometry x="40" y="340" width="250" height="140" as="geometry" />
        </mxCell>
        <mxCell id="50opZlvA_jptatyNIHWN-83" value="&lt;div&gt;&lt;br&gt;&lt;/div&gt;&lt;div&gt;&lt;br&gt;&lt;/div&gt;&lt;div&gt;&lt;br&gt;&lt;/div&gt;&lt;div&gt;&lt;br&gt;&lt;/div&gt;&lt;div&gt;&lt;br&gt;&lt;/div&gt;&lt;div&gt;&lt;br&gt;&lt;/div&gt;&lt;div&gt;&lt;br&gt;&lt;/div&gt;Decoupled Detection Head" style="rounded=1;whiteSpace=wrap;html=1;arcSize=8;fillColor=#ffcccc;strokeColor=#ff9494;" parent="1" vertex="1">
          <mxGeometry x="300" y="340" width="240" height="140" as="geometry" />
        </mxCell>
        <mxCell id="50opZlvA_jptatyNIHWN-81" value="&lt;div style=&quot;text-align: justify;&quot;&gt;&lt;br&gt;&lt;/div&gt;" style="rounded=1;whiteSpace=wrap;html=1;arcSize=5;fillColor=#eeeeee;strokeColor=#7c7979;opacity=90;align=center;" parent="1" vertex="1">
          <mxGeometry x="40" y="110" width="500" height="220" as="geometry" />
        </mxCell>
        <mxCell id="50opZlvA_jptatyNIHWN-10" value="" style="shape=trapezoid;perimeter=trapezoidPerimeter;whiteSpace=wrap;html=1;fixedSize=1;rotation=-180;align=center;fillColor=#cce5ff;strokeColor=#3d3f43;" parent="1" vertex="1">
          <mxGeometry x="60" y="160" width="120" height="160" as="geometry" />
        </mxCell>
        <mxCell id="3TsgUT6RMdc_zKiI5HgE-16" value="" style="rounded=1;whiteSpace=wrap;html=1;fillColor=#d5e8d4;strokeColor=#3D3F43;opacity=80;arcSize=5;" vertex="1" parent="1">
          <mxGeometry x="130" y="350" width="70" height="80" as="geometry" />
        </mxCell>
        <mxCell id="50opZlvA_jptatyNIHWN-15" value="" style="endArrow=classic;html=1;rounded=0;exitX=0.019;exitY=0.874;exitDx=0;exitDy=0;exitPerimeter=0;entryX=0.007;entryY=0.074;entryDx=0;entryDy=0;entryPerimeter=0;" parent="1" source="50opZlvA_jptatyNIHWN-10" target="50opZlvA_jptatyNIHWN-20" edge="1">
          <mxGeometry width="50" height="50" relative="1" as="geometry">
            <mxPoint x="180" y="180" as="sourcePoint" />
            <mxPoint x="220" y="180" as="targetPoint" />
          </mxGeometry>
        </mxCell>
        <mxCell id="50opZlvA_jptatyNIHWN-16" value="" style="endArrow=classic;html=1;rounded=0;exitX=0.062;exitY=0.624;exitDx=0;exitDy=0;exitPerimeter=0;entryX=-0.001;entryY=0.362;entryDx=0;entryDy=0;entryPerimeter=0;" parent="1" source="50opZlvA_jptatyNIHWN-10" target="50opZlvA_jptatyNIHWN-20" edge="1">
          <mxGeometry width="50" height="50" relative="1" as="geometry">
            <mxPoint x="180" y="220" as="sourcePoint" />
            <mxPoint x="220" y="220" as="targetPoint" />
          </mxGeometry>
        </mxCell>
        <mxCell id="50opZlvA_jptatyNIHWN-17" value="" style="endArrow=classic;html=1;rounded=0;exitX=0.103;exitY=0.375;exitDx=0;exitDy=0;exitPerimeter=0;entryX=0.007;entryY=0.642;entryDx=0;entryDy=0;entryPerimeter=0;" parent="1" source="50opZlvA_jptatyNIHWN-10" target="50opZlvA_jptatyNIHWN-20" edge="1">
          <mxGeometry width="50" height="50" relative="1" as="geometry">
            <mxPoint x="180" y="260" as="sourcePoint" />
            <mxPoint x="220" y="260" as="targetPoint" />
          </mxGeometry>
        </mxCell>
        <mxCell id="50opZlvA_jptatyNIHWN-18" value="" style="endArrow=classic;html=1;rounded=0;exitX=0.144;exitY=0.123;exitDx=0;exitDy=0;exitPerimeter=0;entryX=-0.007;entryY=0.929;entryDx=0;entryDy=0;entryPerimeter=0;" parent="1" source="50opZlvA_jptatyNIHWN-10" target="50opZlvA_jptatyNIHWN-20" edge="1">
          <mxGeometry width="50" height="50" relative="1" as="geometry">
            <mxPoint x="180" y="300" as="sourcePoint" />
            <mxPoint x="220" y="300" as="targetPoint" />
          </mxGeometry>
        </mxCell>
        <mxCell id="50opZlvA_jptatyNIHWN-20" value="&lt;div&gt;Quad&lt;/div&gt;&lt;div&gt;FPN-PAN&lt;/div&gt;&lt;div&gt;Neck&lt;/div&gt;" style="rounded=1;whiteSpace=wrap;html=1;fillColor=#cdeb8b;strokeColor=#3d3f43;opacity=80;" parent="1" vertex="1">
          <mxGeometry x="230" y="170" width="60" height="140" as="geometry" />
        </mxCell>
        <mxCell id="50opZlvA_jptatyNIHWN-22" value="" style="endArrow=none;html=1;rounded=0;" parent="1" edge="1">
          <mxGeometry width="50" height="50" relative="1" as="geometry">
            <mxPoint x="170" y="230" as="sourcePoint" />
            <mxPoint x="170" y="230" as="targetPoint" />
          </mxGeometry>
        </mxCell>
        <mxCell id="50opZlvA_jptatyNIHWN-45" value="&lt;div&gt;&lt;span style=&quot;background-color: initial;&quot;&gt;Backbone&lt;/span&gt;&lt;br&gt;&lt;/div&gt;" style="text;html=1;align=center;verticalAlign=middle;whiteSpace=wrap;rounded=0;" parent="1" vertex="1">
          <mxGeometry x="90" y="225" width="60" height="30" as="geometry" />
        </mxCell>
        <mxCell id="50opZlvA_jptatyNIHWN-46" value="" style="endArrow=classic;html=1;rounded=0;entryX=0.5;entryY=1;entryDx=0;entryDy=0;" parent="1" target="50opZlvA_jptatyNIHWN-10" edge="1">
          <mxGeometry width="50" height="50" relative="1" as="geometry">
            <mxPoint x="120" y="120" as="sourcePoint" />
            <mxPoint x="150" y="110" as="targetPoint" />
          </mxGeometry>
        </mxCell>
        <mxCell id="50opZlvA_jptatyNIHWN-47" value="Input" style="text;html=1;align=center;verticalAlign=middle;whiteSpace=wrap;rounded=0;" parent="1" vertex="1">
          <mxGeometry x="110" y="120" width="60" height="30" as="geometry" />
        </mxCell>
        <mxCell id="50opZlvA_jptatyNIHWN-50" value="" style="endArrow=classic;html=1;rounded=0;" parent="1" edge="1">
          <mxGeometry width="50" height="50" relative="1" as="geometry">
            <mxPoint x="290" y="180" as="sourcePoint" />
            <mxPoint x="330" y="180" as="targetPoint" />
          </mxGeometry>
        </mxCell>
        <mxCell id="50opZlvA_jptatyNIHWN-52" value="" style="endArrow=classic;html=1;rounded=0;" parent="1" edge="1">
          <mxGeometry width="50" height="50" relative="1" as="geometry">
            <mxPoint x="290" y="220" as="sourcePoint" />
            <mxPoint x="330" y="220" as="targetPoint" />
          </mxGeometry>
        </mxCell>
        <mxCell id="50opZlvA_jptatyNIHWN-54" value="" style="endArrow=classic;html=1;rounded=0;" parent="1" edge="1">
          <mxGeometry width="50" height="50" relative="1" as="geometry">
            <mxPoint x="290" y="260" as="sourcePoint" />
            <mxPoint x="330" y="260" as="targetPoint" />
          </mxGeometry>
        </mxCell>
        <mxCell id="50opZlvA_jptatyNIHWN-56" value="" style="endArrow=classic;html=1;rounded=0;" parent="1" edge="1">
          <mxGeometry width="50" height="50" relative="1" as="geometry">
            <mxPoint x="290" y="300" as="sourcePoint" />
            <mxPoint x="330" y="300" as="targetPoint" />
          </mxGeometry>
        </mxCell>
        <mxCell id="50opZlvA_jptatyNIHWN-66" value="&lt;div style=&quot;&quot;&gt;&lt;br&gt;&lt;/div&gt;&lt;div style=&quot;&quot;&gt;&lt;br&gt;&lt;/div&gt;&lt;div style=&quot;&quot;&gt;&lt;br&gt;&lt;/div&gt;&lt;div style=&quot;&quot;&gt;&lt;br&gt;&lt;/div&gt;&lt;div style=&quot;&quot;&gt;&lt;br&gt;&lt;/div&gt;&lt;div style=&quot;&quot;&gt;&lt;br&gt;&lt;/div&gt;&lt;div style=&quot;&quot;&gt;Decoupled Detection Head&lt;/div&gt;&lt;div style=&quot;&quot;&gt;×4&lt;br&gt;&lt;/div&gt;" style="rounded=1;whiteSpace=wrap;html=1;align=center;fillColor=#ffcccc;strokeColor=#3d3f43;glass=0;shadow=0;arcSize=9;" parent="1" vertex="1">
          <mxGeometry x="330" y="170" width="191" height="140" as="geometry" />
        </mxCell>
        <mxCell id="50opZlvA_jptatyNIHWN-72" value="" style="edgeStyle=elbowEdgeStyle;elbow=horizontal;endArrow=classic;html=1;curved=0;rounded=0;endSize=8;startSize=8;" parent="1" edge="1">
          <mxGeometry width="50" height="50" relative="1" as="geometry">
            <mxPoint x="370.5" y="210" as="sourcePoint" />
            <mxPoint x="420.5" y="230" as="targetPoint" />
            <Array as="points">
              <mxPoint x="390.5" y="220" />
            </Array>
          </mxGeometry>
        </mxCell>
        <mxCell id="50opZlvA_jptatyNIHWN-73" value="&lt;font style=&quot;font-size: 10px;&quot;&gt;Regression&lt;/font&gt;" style="rounded=1;whiteSpace=wrap;html=1;" parent="1" vertex="1">
          <mxGeometry x="425.5" y="180" width="64.5" height="20" as="geometry" />
        </mxCell>
        <mxCell id="50opZlvA_jptatyNIHWN-74" value="&lt;font style=&quot;font-size: 10px;&quot;&gt;Classification&lt;/font&gt;" style="rounded=1;whiteSpace=wrap;html=1;" parent="1" vertex="1">
          <mxGeometry x="425.5" y="220" width="64.5" height="20" as="geometry" />
        </mxCell>
        <mxCell id="50opZlvA_jptatyNIHWN-75" value="" style="edgeStyle=elbowEdgeStyle;elbow=horizontal;endArrow=classic;html=1;curved=0;rounded=0;endSize=8;startSize=8;" parent="1" edge="1">
          <mxGeometry width="50" height="50" relative="1" as="geometry">
            <mxPoint x="370.5" y="210" as="sourcePoint" />
            <mxPoint x="420.5" y="190" as="targetPoint" />
            <Array as="points">
              <mxPoint x="390.5" y="200" />
            </Array>
          </mxGeometry>
        </mxCell>
        <mxCell id="3TsgUT6RMdc_zKiI5HgE-1" value="&lt;font style=&quot;font-size: 10px;&quot;&gt;GruopFocus&lt;/font&gt;" style="rounded=1;whiteSpace=wrap;html=1;fillColor=#fff2cc;strokeColor=#3d3f43;" vertex="1" parent="1">
          <mxGeometry x="135" y="360" width="60" height="20" as="geometry" />
        </mxCell>
        <mxCell id="3TsgUT6RMdc_zKiI5HgE-2" value="&lt;span style=&quot;font-size: 10px;&quot;&gt;Conv&lt;/span&gt;" style="rounded=1;whiteSpace=wrap;html=1;fillColor=#ffe6cc;strokeColor=#3d3f43;" vertex="1" parent="1">
          <mxGeometry x="50" y="360" width="60" height="20" as="geometry" />
        </mxCell>
        <mxCell id="3TsgUT6RMdc_zKiI5HgE-3" value="&lt;font style=&quot;font-size: 10px;&quot;&gt;SPPF&lt;/font&gt;" style="rounded=1;whiteSpace=wrap;html=1;fillColor=#e1d5e7;strokeColor=#3d3f43;" vertex="1" parent="1">
          <mxGeometry x="220" y="400" width="60" height="20" as="geometry" />
        </mxCell>
        <mxCell id="3TsgUT6RMdc_zKiI5HgE-4" value="&lt;font style=&quot;font-size: 10px;&quot;&gt;C3&lt;/font&gt;" style="rounded=1;whiteSpace=wrap;html=1;fillColor=#f8cecc;strokeColor=#3d3f43;" vertex="1" parent="1">
          <mxGeometry x="135" y="400" width="60" height="20" as="geometry" />
        </mxCell>
        <mxCell id="3TsgUT6RMdc_zKiI5HgE-5" value="×4" style="text;strokeColor=none;align=center;fillColor=none;html=1;verticalAlign=middle;whiteSpace=wrap;rounded=0;" vertex="1" parent="1">
          <mxGeometry x="180" y="374.06" width="60" height="30" as="geometry" />
        </mxCell>
        <mxCell id="3TsgUT6RMdc_zKiI5HgE-12" value="" style="endArrow=classic;html=1;rounded=0;" edge="1" parent="1">
          <mxGeometry width="50" height="50" relative="1" as="geometry">
            <mxPoint x="110" y="370" as="sourcePoint" />
            <mxPoint x="135" y="370" as="targetPoint" />
          </mxGeometry>
        </mxCell>
        <mxCell id="3TsgUT6RMdc_zKiI5HgE-14" value="" style="endArrow=classic;html=1;rounded=0;exitX=1;exitY=0.5;exitDx=0;exitDy=0;" edge="1" parent="1">
          <mxGeometry width="50" height="50" relative="1" as="geometry">
            <mxPoint x="195" y="409.76" as="sourcePoint" />
            <mxPoint x="220" y="410" as="targetPoint" />
          </mxGeometry>
        </mxCell>
        <mxCell id="3TsgUT6RMdc_zKiI5HgE-15" value="" style="endArrow=classic;html=1;rounded=0;exitX=0.5;exitY=1;exitDx=0;exitDy=0;entryX=0.5;entryY=0;entryDx=0;entryDy=0;" edge="1" parent="1" source="3TsgUT6RMdc_zKiI5HgE-1" target="3TsgUT6RMdc_zKiI5HgE-4">
          <mxGeometry width="50" height="50" relative="1" as="geometry">
            <mxPoint x="120" y="390" as="sourcePoint" />
            <mxPoint x="155" y="390" as="targetPoint" />
          </mxGeometry>
        </mxCell>
        <mxCell id="3TsgUT6RMdc_zKiI5HgE-18" value="&lt;span style=&quot;font-size: 10px;&quot;&gt;Conv&lt;/span&gt;" style="rounded=1;whiteSpace=wrap;html=1;fillColor=#ffe6cc;strokeColor=#3d3f43;" vertex="1" parent="1">
          <mxGeometry x="414" y="350" width="60" height="20" as="geometry" />
        </mxCell>
        <mxCell id="3TsgUT6RMdc_zKiI5HgE-19" value="&lt;font style=&quot;font-size: 10px;&quot;&gt;ScConv&lt;/font&gt;" style="rounded=1;whiteSpace=wrap;html=1;fillColor=#ffcc99;strokeColor=#36393d;" vertex="1" parent="1">
          <mxGeometry x="330" y="350" width="60" height="20" as="geometry" />
        </mxCell>
        <mxCell id="3TsgUT6RMdc_zKiI5HgE-20" value="" style="endArrow=classic;html=1;rounded=0;entryX=0;entryY=0.5;entryDx=0;entryDy=0;" edge="1" parent="1" target="3TsgUT6RMdc_zKiI5HgE-18">
          <mxGeometry width="50" height="50" relative="1" as="geometry">
            <mxPoint x="390" y="360" as="sourcePoint" />
            <mxPoint x="410" y="359.71" as="targetPoint" />
          </mxGeometry>
        </mxCell>
        <mxCell id="3TsgUT6RMdc_zKiI5HgE-21" value="&lt;span style=&quot;font-size: 10px;&quot;&gt;ScConv&lt;/span&gt;" style="rounded=1;whiteSpace=wrap;html=1;fillColor=#ffcc99;strokeColor=#36393d;" vertex="1" parent="1">
          <mxGeometry x="330" y="410" width="60" height="20" as="geometry" />
        </mxCell>
        <mxCell id="3TsgUT6RMdc_zKiI5HgE-24" value="&lt;span style=&quot;font-size: 10px;&quot;&gt;Conv&lt;/span&gt;" style="rounded=1;whiteSpace=wrap;html=1;fillColor=#ffe6cc;strokeColor=#3d3f43;" vertex="1" parent="1">
          <mxGeometry x="414" y="410" width="60" height="20" as="geometry" />
        </mxCell>
        <mxCell id="3TsgUT6RMdc_zKiI5HgE-25" value="" style="endArrow=classic;html=1;rounded=0;entryX=0;entryY=0.5;entryDx=0;entryDy=0;" edge="1" parent="1" target="3TsgUT6RMdc_zKiI5HgE-24">
          <mxGeometry width="50" height="50" relative="1" as="geometry">
            <mxPoint x="390" y="420" as="sourcePoint" />
            <mxPoint x="410" y="419.71" as="targetPoint" />
          </mxGeometry>
        </mxCell>
        <mxCell id="3TsgUT6RMdc_zKiI5HgE-26" value="&lt;span style=&quot;font-size: 10px;&quot;&gt;Cls&lt;/span&gt;" style="rounded=1;whiteSpace=wrap;html=1;" vertex="1" parent="1">
          <mxGeometry x="500" y="350" width="30" height="20" as="geometry" />
        </mxCell>
        <mxCell id="3TsgUT6RMdc_zKiI5HgE-27" value="&lt;span style=&quot;font-size: 10px;&quot;&gt;Bbox&lt;/span&gt;" style="rounded=1;whiteSpace=wrap;html=1;" vertex="1" parent="1">
          <mxGeometry x="500" y="410" width="30" height="20" as="geometry" />
        </mxCell>
        <mxCell id="3TsgUT6RMdc_zKiI5HgE-30" value="" style="endArrow=classic;html=1;rounded=0;entryX=0;entryY=0.5;entryDx=0;entryDy=0;exitX=1;exitY=0.5;exitDx=0;exitDy=0;" edge="1" parent="1" source="3TsgUT6RMdc_zKiI5HgE-18">
          <mxGeometry width="50" height="50" relative="1" as="geometry">
            <mxPoint x="476" y="359.94" as="sourcePoint" />
            <mxPoint x="500" y="359.94" as="targetPoint" />
          </mxGeometry>
        </mxCell>
        <mxCell id="3TsgUT6RMdc_zKiI5HgE-31" value="" style="endArrow=classic;html=1;rounded=0;entryX=0;entryY=0.5;entryDx=0;entryDy=0;exitX=1;exitY=0.5;exitDx=0;exitDy=0;" edge="1" parent="1" source="3TsgUT6RMdc_zKiI5HgE-24">
          <mxGeometry width="50" height="50" relative="1" as="geometry">
            <mxPoint x="476" y="419.89000000000004" as="sourcePoint" />
            <mxPoint x="500" y="419.89000000000004" as="targetPoint" />
          </mxGeometry>
        </mxCell>
        <mxCell id="3TsgUT6RMdc_zKiI5HgE-36" value="" style="strokeWidth=1;html=1;shape=mxgraph.flowchart.annotation_2;align=left;labelPosition=right;pointerEvents=1;" vertex="1" parent="1">
          <mxGeometry x="310" y="360" width="20" height="60" as="geometry" />
        </mxCell>
        <mxCell id="3TsgUT6RMdc_zKiI5HgE-39" value="Quad Decoupled Detector" style="text;strokeColor=none;align=center;fillColor=none;html=1;verticalAlign=middle;whiteSpace=wrap;rounded=0;" vertex="1" parent="1">
          <mxGeometry x="297.5" y="110" width="160" height="30" as="geometry" />
        </mxCell>
        <mxCell id="3TsgUT6RMdc_zKiI5HgE-42" value="" style="shape=curlyBracket;whiteSpace=wrap;html=1;rounded=1;flipH=1;labelPosition=right;verticalLabelPosition=middle;align=left;verticalAlign=middle;rotation=-90;" vertex="1" parent="1">
          <mxGeometry x="367.5" width="20" height="300" as="geometry" />
        </mxCell>
      </root>
    </mxGraphModel>
  </diagram>
</mxfile>
